<svg width="592" height="592" viewBox="0 0 592 592" fill="none" xmlns="http://www.w3.org/2000/svg">
<path d="M430.194 36H161.806C92.3253 36 36 92.3253 36 161.806V430.194C36 499.675 92.3253 556 161.806 556H430.194C499.675 556 556 499.675 556 430.194V161.806C556 92.3253 499.675 36 430.194 36Z" fill="white"/>
<path fill-rule="evenodd" clip-rule="evenodd" d="M368.16 157.703C378.662 151.388 392.063 143.553 403.704 137.242C409.613 134.039 415.037 131.244 419.384 129.244C421.56 128.242 423.431 127.457 424.934 126.919C426.527 126.35 427.438 126.164 427.799 126.153C431.593 126.029 433.6 123.594 434.415 121.458C435.27 119.219 435.208 116.492 434.097 114.366C433.538 113.295 432.649 112.256 431.297 111.561C429.877 110.832 428.135 110.582 426.237 110.901C424.422 111.207 422.542 112.019 420.597 113.289C418.64 114.568 416.507 116.382 414.191 118.824C399.972 133.802 377.853 145.194 368.629 148.986L368.283 149.129L368.033 149.351C367.542 149.79 366.838 150.344 365.996 150.904C364.804 150.51 363.461 150.443 362.276 150.519C360.399 150.639 358.408 151.136 356.66 151.819C354.916 152.5 353.243 153.434 352.107 154.53C350.986 155.614 350.168 157.101 350.955 158.664L350.958 158.668C350.962 158.675 350.968 158.686 350.974 158.705C350.98 158.733 350.992 158.773 351.002 158.827C351.023 158.937 351.042 159.083 351.045 159.272C351.057 159.653 351.023 160.147 350.934 160.759C350.755 161.981 350.375 163.565 349.826 165.441C348.73 169.188 346.989 173.977 344.945 179.141C341.941 186.737 338.305 195.088 335.164 202.012C323.67 198.141 310.66 195.993 296.095 195.943L295.842 195.943H295.697H295.573C281.117 195.993 268.194 198.11 256.762 201.927C253.648 195.051 250.062 186.808 247.094 179.301C245.05 174.138 243.309 169.348 242.213 165.602C241.663 163.725 241.284 162.142 241.108 160.919C241.018 160.308 240.981 159.813 240.994 159.433C241 159.244 241.015 159.097 241.037 158.988C241.046 158.934 241.058 158.894 241.068 158.865L241.071 158.852L241.074 158.842L241.08 158.83L241.083 158.824C241.87 157.261 241.052 155.775 239.932 154.691C238.796 153.595 237.122 152.661 235.378 151.98C233.631 151.296 231.64 150.8 229.766 150.679C228.577 150.603 227.234 150.671 226.043 151.064C225.2 150.504 224.496 149.951 224.005 149.512L223.755 149.289L223.409 149.147C214.185 145.355 192.066 133.963 177.849 118.984C175.531 116.542 173.4 114.728 171.443 113.45C169.498 112.18 167.618 111.368 165.8 111.061C163.903 110.742 162.162 110.993 160.742 111.722C159.392 112.416 158.502 113.455 157.942 114.526C156.833 116.652 156.77 119.379 157.625 121.618C158.439 123.755 160.447 126.19 164.24 126.312C164.602 126.324 165.511 126.511 167.106 127.08C168.609 127.617 170.479 128.403 172.655 129.404C177.002 131.405 182.426 134.199 188.335 137.403C199.975 143.713 213.378 151.548 223.879 157.864C224.678 159.475 226.058 161.397 228.124 163.678C240.259 177.08 245.902 193.417 247.192 199.849L247.245 200.125L247.433 200.369C248.066 201.197 248.893 202.572 249.279 203.934C249.356 204.201 249.411 204.45 249.447 204.683C229.275 213.191 214.299 227.37 204.253 244.811C183.009 253.371 167.629 278.426 167.629 307.999C167.629 336.556 181.968 360.899 202.079 370.248C210.88 390.238 223.04 407.758 235.525 421.754C234.245 430.784 234.305 440.238 234.856 449.32C235.289 456.442 236.517 463.117 239.839 469.476C242.049 473.708 245.164 478.814 249.576 481.049C250.205 481.367 250.255 481.287 250.029 480.873C248.631 478.314 247.452 475.36 246.924 472.501C245.905 466.994 246.146 461.363 246.794 455.825C246.801 455.771 246.806 455.716 246.812 455.662L246.813 455.649L246.821 455.583L246.828 455.516C246.911 454.701 246.995 453.898 247.483 455.146C247.535 455.278 247.6 455.525 247.677 455.825L247.684 455.85C247.934 456.796 248.318 458.246 248.853 458.307C249.125 458.338 249.316 457.986 249.452 457.736C249.458 457.723 249.461 457.714 249.468 457.705C249.752 457.183 249.977 456.631 250.199 456.081L250.228 456.011C250.382 455.633 250.534 455.259 250.709 454.896C252.707 450.696 255.012 446.652 257.87 443.055C264.061 447.973 269.833 451.738 274.745 454.198C274.745 454.198 287.504 461.428 296.401 461.283C304.878 461.147 316.927 454.198 316.927 454.198C321.955 451.679 327.885 447.792 334.244 442.701C337.233 446.386 339.625 450.558 341.691 454.896C341.876 455.282 342.037 455.68 342.197 456.081L342.21 456.111C342.431 456.651 342.653 457.193 342.932 457.705L342.947 457.736C343.083 457.986 343.275 458.338 343.546 458.307C344.087 458.245 344.472 456.769 344.719 455.825C344.8 455.525 344.864 455.278 344.914 455.149C345.405 453.899 345.488 454.701 345.571 455.516C345.584 455.621 345.593 455.723 345.605 455.825C346.254 461.363 346.495 466.994 345.476 472.501C344.948 475.36 343.769 478.314 342.37 480.873C342.145 481.287 342.194 481.367 342.824 481.049C347.235 478.814 350.347 473.708 352.561 469.476C355.882 463.117 357.111 456.442 357.543 449.323C358.096 440.213 358.154 430.733 356.864 421.682C356.834 421.471 356.801 421.261 356.767 421.053C368.868 407.36 380.616 390.368 389.24 371.037C410.28 362.329 425.471 337.4 425.471 308.005C425.471 277.589 409.202 251.952 387.017 244.125C377.031 227.094 362.295 213.235 342.557 204.824C342.584 204.509 342.649 204.159 342.759 203.774C343.145 202.412 343.972 201.036 344.605 200.208L344.794 199.965L344.846 199.688C346.136 193.255 351.78 176.92 363.915 163.517C365.98 161.237 367.363 159.315 368.16 157.703ZM264.653 307.999C264.653 341.88 243.13 365.916 220.343 365.916C197.558 365.916 176.034 341.88 176.034 307.999C176.034 274.122 197.558 250.083 220.343 250.083C243.13 250.083 264.653 274.122 264.653 307.999ZM417.068 308.005C417.068 341.886 395.545 365.922 372.76 365.922C349.974 365.922 328.451 341.886 328.451 308.005C328.451 274.128 349.974 250.089 372.76 250.089C395.545 250.089 417.068 274.128 417.068 308.005Z" fill="#042582"/>
</svg>
